<svg xmlns="http://www.w3.org/2000/svg" width="22" height="22" viewBox="0 0 22 22"><defs><style>.a{fill:#fff;}</style></defs><path class="a" d="M19.385,22H2.615A2.615,2.615,0,0,1,0,19.391V2.609A2.615,2.615,0,0,1,2.615,0h16.77A2.615,2.615,0,0,1,22,2.609V19.391A2.615,2.615,0,0,1,19.385,22ZM2.063,8.937V19.25a.688.688,0,0,0,.688.688h16.5a.688.688,0,0,0,.688-.688V8.937h-2.75a3.552,3.552,0,0,1,.531,2.089,6.693,6.693,0,0,1-13.386,0,4.177,4.177,0,0,1,.48-2.089ZM11.026,6.8a4.221,4.221,0,1,0,4.231,4.221A4.231,4.231,0,0,0,11.026,6.8ZM16.5,2.75a.687.687,0,0,0-.687.687V5.5a.688.688,0,0,0,.687.688h2.063A.688.688,0,0,0,19.25,5.5V3.437a.688.688,0,0,0-.688-.687Z" transform="translate(0 0)"/></svg>